HIERARCHY
ROOT joint_Root
{
	OFFSET 0.0 0.0 0.0
	CHANNELS 6 Xposition Yposition Zposition Zrotation Xrotation Yrotation 
	JOINT Hips
	{
		OFFSET 4.5925 91.4895 -427.239
		CHANNELS 6 Xposition Yposition Zposition Zrotation Xrotation Yrotation 
		JOINT Spine
		{
			OFFSET 15.7357 0.0 0.0
			CHANNELS 6 Xposition Yposition Zposition Zrotation Xrotation Yrotation 
			JOINT Chest
			{
				OFFSET 8.98455 -0.406207 0.0
				CHANNELS 6 Xposition Yposition Zposition Zrotation Xrotation Yrotation 
				JOINT Neck
				{
					OFFSET 16.3773 0.0 0.0
					CHANNELS 6 Xposition Yposition Zposition Zrotation Xrotation Yrotation 
					JOINT Head
					{
						OFFSET 6.45672 0.0 0.0
						CHANNELS 6 Xposition Yposition Zposition Zrotation Xrotation Yrotation 
						End Site
						{
							OFFSET 0.0 0.0 0.0
						}
					}
				}
				JOINT Shoulder_L
				{
					OFFSET 12.9942 -0.242716 4.98039
					CHANNELS 6 Xposition Yposition Zposition Zrotation Xrotation Yrotation 
					JOINT UpperArm_L
					{
						OFFSET 5.34809 0.0 0.0
						CHANNELS 6 Xposition Yposition Zposition Zrotation Xrotation Yrotation 
						JOINT LowerArm_L
						{
							OFFSET 24.3286 1.87007e-05 0.0
							CHANNELS 6 Xposition Yposition Zposition Zrotation Xrotation Yrotation 
							JOINT Hand_L
							{
								OFFSET 22.2916 0.0 0.0
								CHANNELS 6 Xposition Yposition Zposition Zrotation Xrotation Yrotation 
								End Site
								{
									OFFSET 0.0 0.0 0.0
								}
							}
						}
					}
				}
				JOINT Shoulder_R
				{
					OFFSET 12.9945 -0.242716 -4.98039
					CHANNELS 6 Xposition Yposition Zposition Zrotation Xrotation Yrotation 
					JOINT UpperArm_R
					{
						OFFSET -5.34813 0.0 0.0
						CHANNELS 6 Xposition Yposition Zposition Zrotation Xrotation Yrotation 
						JOINT LowerArm_R
						{
							OFFSET -24.3289 0.000322201 0.0
							CHANNELS 6 Xposition Yposition Zposition Zrotation Xrotation Yrotation 
							JOINT Hand_R
							{
								OFFSET -22.2915 -0.000108084 0.0
								CHANNELS 6 Xposition Yposition Zposition Zrotation Xrotation Yrotation 
								End Site
								{
									OFFSET 0.0 0.0 0.0
								}
							}
						}
					}
				}
			}
		}
		JOINT UpperLeg_L
		{
			OFFSET -2.19248 -6.46944 0.0
			CHANNELS 6 Xposition Yposition Zposition Zrotation Xrotation Yrotation 
			JOINT LowerLeg_L
			{
				OFFSET 39.0811 0.0 -1.23785e-05
				CHANNELS 6 Xposition Yposition Zposition Zrotation Xrotation Yrotation 
				JOINT Foot_L
				{
					OFFSET 40.9854 0.0 -1.26872e-05
					CHANNELS 6 Xposition Yposition Zposition Zrotation Xrotation Yrotation 
					JOINT Toes_L
					{
						OFFSET 11.7543 0.0 0.0
						CHANNELS 6 Xposition Yposition Zposition Zrotation Xrotation Yrotation 
						End Site
						{
							OFFSET 0.0 0.0 0.0
						}
					}
				}
			}
		}
		JOINT UpperLeg_R
		{
			OFFSET -2.19251 6.46944 0.0
			CHANNELS 6 Xposition Yposition Zposition Zrotation Xrotation Yrotation 
			JOINT LowerLeg_R
			{
				OFFSET -39.0811 -0.00228153 -0.0401928
				CHANNELS 6 Xposition Yposition Zposition Zrotation Xrotation Yrotation 
				JOINT Foot_R
				{
					OFFSET -40.9854 0.0 0.0
					CHANNELS 6 Xposition Yposition Zposition Zrotation Xrotation Yrotation 
					JOINT Toes_R
					{
						OFFSET -11.7543 0.0 0.0
						CHANNELS 6 Xposition Yposition Zposition Zrotation Xrotation Yrotation 
						End Site
						{
							OFFSET 0.0 0.0 0.0
						}
					}
				}
			}
		}
	}
}
MOTION
Frames:	7
Frame Time:	0.0333333
0.000000 0.000000 0.000000 0.000000 0.000000 -0.000000 1.559600 90.788900 -0.789722 89.874600 -3.977310 11.594900 15.735700 0.000005 -0.000001 89.412000 80.998500 -90.383600 8.984550 -0.406207 -0.000000 10.235100 -0.204437 -1.923580 16.377300 -0.000001 -0.000001 3.354950 -4.063160 2.670000 6.456720 -0.000001 -0.000000 -1.780210 -3.661590 1.681950 12.994200 -0.242716 4.980390 -91.477100 5.736830 -75.534700 5.348090 -0.000007 -0.000001 -60.190600 37.874400 -17.716200 24.328600 0.000019 0.000005 6.798100 20.441200 -18.846400 22.291600 -0.000001 0.000005 7.434130 5.246750 1.518340 12.994500 -0.242716 -4.980390 88.720000 11.321300 -83.506500 -5.348130 -0.000001 -0.000004 -63.057800 31.149900 -12.444500 -24.328900 0.000322 -0.000009 1.657560 4.859070 -18.872900 -22.291500 -0.000108 -0.000004 11.932200 5.382980 -2.392200 -2.192480 -6.469440 -0.000000 -175.940000 -13.728900 1.015240 39.081100 -0.000007 -0.000012 -0.124528 0.207309 30.992800 40.985400 -0.000006 -0.000013 1.667060 4.862850 -70.364000 11.754300 -0.000000 0.000003 -0.000196 -0.001822 -16.646300 -2.192510 6.469440 -0.000001 171.355000 21.084500 -178.393000 -39.081100 -0.002282 -0.040193 -0.207035 0.355291 30.626200 -40.985400 0.000008 0.000006 2.040830 14.950800 -69.521200 -11.754300 -0.000006 -0.000006 -0.002884 -0.039279 -18.170500
0.000000 0.000000 0.000000 0.000000 0.000000 -0.000000 1.638070 90.785600 -0.800429 89.866500 -3.984970 11.655000 15.735700 0.000005 -0.000001 89.573400 80.978300 -90.612700 8.984550 -0.406207 -0.000000 10.276200 -0.156181 -2.063070 16.377300 -0.000001 -0.000001 3.511580 -4.088910 2.569380 6.456720 -0.000001 -0.000000 -1.508210 -3.736660 1.318120 12.994200 -0.242716 4.980390 -91.485300 5.762580 -75.519800 5.348090 -0.000007 -0.000001 -60.259000 38.155500 -17.916400 24.328600 0.000019 0.000005 6.901060 20.233800 -19.287600 22.291600 -0.000001 0.000005 7.281000 5.249780 1.438450 12.994500 -0.242716 -4.980390 88.700500 11.249700 -83.367200 -5.348130 -0.000001 -0.000004 -62.750600 31.191900 -13.217700 -24.328900 0.000322 -0.000009 1.801840 5.162710 -19.279700 -22.291500 -0.000108 -0.000004 11.781800 5.383230 -2.401460 -2.192480 -6.469440 -0.000000 -175.976000 -13.745100 1.061840 39.081100 -0.000007 -0.000012 -0.122521 0.203794 31.014500 40.985400 -0.000006 -0.000013 1.722450 4.836730 -70.382800 11.754300 -0.000000 0.000003 -0.000200 -0.001853 -16.647500 -2.192510 6.469440 -0.000001 171.280000 21.082800 -178.338000 -39.081100 -0.002282 -0.040193 -0.205971 0.353521 30.624200 -40.985400 0.000008 0.000006 1.995520 15.009500 -69.490500 -11.754300 -0.000006 -0.000006 -0.002949 -0.040023 -18.200800
0.000000 0.000000 0.000000 0.000000 0.000000 -0.000000 1.713560 90.791600 -0.839704 89.822600 -3.953460 11.693600 15.735700 0.000005 -0.000001 89.500600 80.971400 -90.594000 8.984550 -0.406207 -0.000000 10.289700 -0.180395 -2.169130 16.377300 -0.000001 -0.000001 3.795490 -4.105770 2.412370 6.456720 -0.000001 -0.000000 -1.303880 -3.755240 0.935922 12.994200 -0.242716 4.980390 -91.496600 5.790350 -75.481200 5.348090 -0.000007 -0.000001 -60.306100 38.526400 -18.087800 24.328600 0.000019 0.000005 6.967710 19.832100 -19.810300 22.291600 -0.000001 0.000005 7.370410 5.252810 1.358410 12.994500 -0.242716 -4.980390 88.636400 11.253700 -83.045700 -5.348130 -0.000001 -0.000004 -62.379000 29.914200 -14.219100 -24.328900 0.000322 -0.000009 2.222120 6.056710 -20.198900 -22.291500 -0.000108 -0.000004 10.713600 5.380500 -2.314250 -2.192480 -6.469440 -0.000000 -176.007000 -13.661600 1.059680 39.081100 -0.000007 -0.000012 -0.119301 0.198357 31.024800 40.985400 -0.000006 -0.000013 1.765720 4.778470 -70.367400 11.754300 -0.000000 0.000003 -0.000210 -0.001929 -16.650200 -2.192510 6.469440 -0.000001 171.241000 21.165300 -178.283000 -39.081100 -0.002282 -0.040193 -0.207857 0.357565 30.564000 -40.985400 0.000008 0.000006 1.951890 15.066400 -69.412400 -11.754300 -0.000006 -0.000006 -0.002924 -0.039745 -18.189400
0.000000 0.000000 0.000000 0.000000 0.000000 -0.000000 1.804080 90.793300 -0.897994 89.795500 -4.033980 11.688700 15.735700 0.000005 -0.000001 89.301500 80.980800 -90.456300 8.984550 -0.406207 -0.000000 10.269600 -0.243654 -2.286270 16.377300 -0.000001 -0.000001 4.191150 -4.031900 2.134930 6.456720 -0.000001 -0.000000 -1.089800 -3.709060 0.647423 12.994200 -0.242716 4.980390 -91.504000 5.782970 -75.394700 5.348090 -0.000007 -0.000001 -60.357100 38.915300 -18.210000 24.328600 0.000019 0.000005 7.123110 19.567700 -20.461600 22.291600 -0.000001 0.000005 7.265960 5.254250 1.320210 12.994500 -0.242716 -4.980390 88.546100 11.434500 -82.704200 -5.348130 -0.000001 -0.000004 -62.151500 26.599300 -15.226800 -24.328900 0.000322 -0.000009 2.527270 6.289870 -21.952400 -22.291500 -0.000108 -0.000004 10.511800 5.379130 -2.271170 -2.192480 -6.469440 -0.000000 -176.054000 -13.697600 1.000820 39.081100 -0.000007 -0.000012 -0.117416 0.194995 31.054500 40.985400 -0.000006 -0.000013 1.818090 4.701010 -70.354700 11.754300 -0.000000 0.000003 -0.000196 -0.001821 -16.646300 -2.192510 6.469440 -0.000001 171.228000 21.174500 -178.347000 -39.081100 -0.002282 -0.040193 -0.204955 0.352795 30.553700 -40.985400 0.000008 0.000006 1.918450 15.153300 -69.329900 -11.754300 -0.000006 -0.000006 -0.002866 -0.039075 -18.162200
0.000000 0.000000 0.000000 0.000000 0.000000 -0.000000 1.918790 90.790000 -0.957293 89.754900 -4.269080 11.756500 15.735700 0.000005 -0.000001 89.181700 80.978800 -90.380800 8.984550 -0.406207 -0.000000 10.272800 -0.282164 -2.371260 16.377300 -0.000001 -0.000001 4.700380 -3.981190 1.765910 6.456720 -0.000001 -0.000000 -0.706708 -3.696740 0.337203 12.994200 -0.242716 4.980390 -91.499200 5.744030 -75.345300 5.348090 -0.000007 -0.000001 -60.401700 39.356800 -18.343300 24.328600 0.000019 0.000005 7.209920 19.272200 -20.971000 22.291600 -0.000001 0.000005 7.235100 5.258340 1.211600 12.994500 -0.242716 -4.980390 88.469600 11.481600 -82.355700 -5.348130 -0.000001 -0.000004 -62.168000 22.168300 -16.520200 -24.328900 0.000322 -0.000009 2.199730 4.874400 -24.342200 -22.291500 -0.000108 -0.000004 11.251400 5.387140 -2.523230 -2.192480 -6.469440 -0.000000 -176.055000 -13.847400 1.024560 39.081100 -0.000007 -0.000012 -0.114494 0.189742 31.107900 40.985400 -0.000006 -0.000013 1.870140 4.584130 -70.365500 11.754300 -0.000000 0.000003 -0.000195 -0.001813 -16.646000 -2.192510 6.469440 -0.000001 171.227000 21.019800 -178.376000 -39.081100 -0.002282 -0.040193 -0.201255 0.346482 30.557000 -40.985400 0.000008 0.000006 1.873590 15.258500 -69.239300 -11.754300 -0.000006 -0.000006 -0.002834 -0.038705 -18.147100
0.000000 0.000000 0.000000 0.000000 0.000000 -0.000000 2.049150 90.786100 -1.011350 89.711600 -4.625730 11.902200 15.735700 0.000005 -0.000001 89.057200 80.949500 -90.287600 8.984550 -0.406207 -0.000000 10.330300 -0.323347 -2.430050 16.377300 -0.000001 -0.000001 5.307190 -3.887620 1.376940 6.456720 -0.000001 -0.000000 -0.186955 -3.669180 -0.079943 12.994200 -0.242716 4.980390 -91.485100 5.678500 -75.317300 5.348090 -0.000007 -0.000001 -60.291600 39.947000 -18.579600 24.328600 0.000019 0.000005 7.294730 19.038100 -21.426400 22.291600 -0.000001 0.000005 7.242620 5.258780 1.199580 12.994500 -0.242716 -4.980390 88.435000 11.344800 -82.092900 -5.348130 -0.000001 -0.000004 -61.731900 18.212600 -18.483200 -24.328900 0.000322 -0.000009 1.525910 2.927520 -27.575100 -22.291500 -0.000108 -0.000004 12.229400 5.391620 -2.666710 -2.192480 -6.469440 -0.000000 -176.043000 -14.028600 1.157320 39.081100 -0.000007 -0.000012 -0.112180 0.185602 31.149400 40.985400 -0.000006 -0.000013 1.919780 4.406060 -70.391800 11.754300 -0.000000 0.000003 -0.000191 -0.001782 -16.644900 -2.192510 6.469440 -0.000001 171.190000 20.794800 -178.326000 -39.081100 -0.002282 -0.040193 -0.202192 0.348177 30.549200 -40.985400 0.000008 0.000006 1.830800 15.443300 -69.141200 -11.754300 -0.000006 -0.000006 -0.003084 -0.041549 -18.262900
0.000000 0.000000 0.000000 0.000000 0.000000 -0.000000 2.217280 90.773800 -1.075770 89.672000 -5.055710 12.068500 15.735700 0.000005 -0.000001 88.846100 80.939900 -90.095900 8.984550 -0.406207 -0.000000 10.347600 -0.390598 -2.462680 16.377300 -0.000001 -0.000001 6.130340 -3.777200 1.078250 6.456720 -0.000001 -0.000000 0.409959 -3.569200 -0.783062 12.994200 -0.242716 4.980390 -91.492300 5.681420 -75.256400 5.348090 -0.000007 -0.000001 -60.120300 40.432900 -18.773000 24.328600 0.000019 0.000005 7.356760 18.883600 -21.748000 22.291600 -0.000001 0.000005 7.190120 5.260020 1.166580 12.994500 -0.242716 -4.980390 88.430700 11.031600 -81.852300 -5.348130 -0.000001 -0.000004 -60.670900 15.241200 -21.229100 -24.328900 0.000322 -0.000009 1.004530 1.657890 -31.257300 -22.291500 -0.000108 -0.000004 13.118800 5.395290 -2.784820 -2.192480 -6.469440 -0.000000 -176.056000 -14.243100 1.279370 39.081100 -0.000007 -0.000012 -0.107174 0.176727 31.234500 40.985400 -0.000006 -0.000013 1.977390 4.152350 -70.432900 11.754300 -0.000000 0.000003 -0.000209 -0.001918 -16.649800 -2.192510 6.469440 -0.000001 171.148000 20.518300 -178.321000 -39.081100 -0.002282 -0.040193 -0.200109 0.344041 30.593400 -40.985400 0.000008 0.000006 1.778500 15.640100 -69.035200 -11.754300 -0.000006 -0.000006 -0.003086 -0.041574 -18.263900
